<svg class="main-svg" xmlns="http://www.w3.org/2000/svg" xmlns:xlink="http://www.w3.org/1999/xlink" width="700" height="500" style="" viewBox="0 0 700 500"><rect x="0" y="0" width="700" height="500" style="fill: rgb(255, 255, 255); fill-opacity: 1;"/><defs id="defs-505328"><g class="clips"><clipPath id="clip505328xyplot" class="plotclip"><rect width="540" height="320"/></clipPath><clipPath class="axesclip" id="clip505328x"><rect x="80" y="0" width="540" height="500"/></clipPath><clipPath class="axesclip" id="clip505328y"><rect x="0" y="100" width="700" height="320"/></clipPath><clipPath class="axesclip" id="clip505328xy"><rect x="80" y="100" width="540" height="320"/></clipPath></g><g class="gradients"/><g class="patterns"/></defs><g class="bglayer"><rect class="bg" x="80" y="100" width="540" height="320" style="fill: rgb(229, 236, 246); fill-opacity: 1; stroke-width: 0;"/></g><g class="layer-below"><g class="imagelayer"/><g class="shapelayer"/></g><g class="cartesianlayer"><g class="subplot xy"><g class="layer-subplot"><g class="shapelayer"/><g class="imagelayer"/></g><g class="minor-gridlayer"><g class="x"/><g class="y"/></g><g class="gridlayer"><g class="x"><path class="xgrid crisp" transform="translate(200.70999999999998,0)" d="M0,100v320" style="stroke: rgb(255, 255, 255); stroke-opacity: 1; stroke-width: 1px;"/><path class="xgrid crisp" transform="translate(298.53999999999996,0)" d="M0,100v320" style="stroke: rgb(255, 255, 255); stroke-opacity: 1; stroke-width: 1px;"/><path class="xgrid crisp" transform="translate(396.37,0)" d="M0,100v320" style="stroke: rgb(255, 255, 255); stroke-opacity: 1; stroke-width: 1px;"/><path class="xgrid crisp" transform="translate(494.2,0)" d="M0,100v320" style="stroke: rgb(255, 255, 255); stroke-opacity: 1; stroke-width: 1px;"/><path class="xgrid crisp" transform="translate(592.03,0)" d="M0,100v320" style="stroke: rgb(255, 255, 255); stroke-opacity: 1; stroke-width: 1px;"/></g><g class="y"><path class="ygrid crisp" transform="translate(0,347.51)" d="M80,0h540" style="stroke: rgb(255, 255, 255); stroke-opacity: 1; stroke-width: 1px;"/><path class="ygrid crisp" transform="translate(0,290.15999999999997)" d="M80,0h540" style="stroke: rgb(255, 255, 255); stroke-opacity: 1; stroke-width: 1px;"/><path class="ygrid crisp" transform="translate(0,232.82)" d="M80,0h540" style="stroke: rgb(255, 255, 255); stroke-opacity: 1; stroke-width: 1px;"/><path class="ygrid crisp" transform="translate(0,175.47)" d="M80,0h540" style="stroke: rgb(255, 255, 255); stroke-opacity: 1; stroke-width: 1px;"/><path class="ygrid crisp" transform="translate(0,118.12)" d="M80,0h540" style="stroke: rgb(255, 255, 255); stroke-opacity: 1; stroke-width: 1px;"/></g></g><g class="zerolinelayer"><path class="xzl zl crisp" transform="translate(102.88,0)" d="M0,100v320" style="stroke: rgb(255, 255, 255); stroke-opacity: 1; stroke-width: 2px;"/><path class="yzl zl crisp" transform="translate(0,404.86)" d="M80,0h540" style="stroke: rgb(255, 255, 255); stroke-opacity: 1; stroke-width: 2px;"/></g><g class="layer-between"><g class="shapelayer"/><g class="imagelayer"/></g><path class="xlines-below"/><path class="ylines-below"/><g class="overlines-below"/><g class="xaxislayer-below"/><g class="yaxislayer-below"/><g class="overaxes-below"/><g class="overplot"><g class="xy" transform="translate(80,100)" clip-path="url(#clip505328xyplot)"><g class="scatterlayer mlayer"><g class="trace scatter trace15f67a" style="stroke-miterlimit: 2; opacity: 1;"><g class="fills"/><g class="errorbars"/><g class="lines"/><g class="points"><path class="point" transform="translate(95.29,262.41)" d="M3,0A3,3 0 1,1 0,-3A3,3 0 0,1 3,0Z" style="opacity: 1; stroke-width: 0px; fill: rgb(99, 110, 250); fill-opacity: 1;"/><path class="point" transform="translate(467.99,43.93)" d="M3,0A3,3 0 1,1 0,-3A3,3 0 0,1 3,0Z" style="opacity: 1; stroke-width: 0px; fill: rgb(99, 110, 250); fill-opacity: 1;"/><path class="point" transform="translate(402.54,82.3)" d="M3,0A3,3 0 1,1 0,-3A3,3 0 0,1 3,0Z" style="opacity: 1; stroke-width: 0px; fill: rgb(99, 110, 250); fill-opacity: 1;"/><path class="point" transform="translate(163.79,222.26)" d="M3,0A3,3 0 1,1 0,-3A3,3 0 0,1 3,0Z" style="opacity: 1; stroke-width: 0px; fill: rgb(99, 110, 250); fill-opacity: 1;"/><path class="point" transform="translate(388.4,90.59)" d="M3,0A3,3 0 1,1 0,-3A3,3 0 0,1 3,0Z" style="opacity: 1; stroke-width: 0px; fill: rgb(99, 110, 250); fill-opacity: 1;"/><path class="point" transform="translate(444.81,57.53)" d="M3,0A3,3 0 1,1 0,-3A3,3 0 0,1 3,0Z" style="opacity: 1; stroke-width: 0px; fill: rgb(99, 110, 250); fill-opacity: 1;"/><path class="point" transform="translate(323.06,128.89)" d="M3,0A3,3 0 1,1 0,-3A3,3 0 0,1 3,0Z" style="opacity: 1; stroke-width: 0px; fill: rgb(99, 110, 250); fill-opacity: 1;"/><path class="point" transform="translate(482.44,35.47)" d="M3,0A3,3 0 1,1 0,-3A3,3 0 0,1 3,0Z" style="opacity: 1; stroke-width: 0px; fill: rgb(99, 110, 250); fill-opacity: 1;"/><path class="point" transform="translate(319.12,131.21)" d="M3,0A3,3 0 1,1 0,-3A3,3 0 0,1 3,0Z" style="opacity: 1; stroke-width: 0px; fill: rgb(99, 110, 250); fill-opacity: 1;"/><path class="point" transform="translate(72.92,275.53)" d="M3,0A3,3 0 1,1 0,-3A3,3 0 0,1 3,0Z" style="opacity: 1; stroke-width: 0px; fill: rgb(99, 110, 250); fill-opacity: 1;"/><path class="point" transform="translate(506.84,21.16)" d="M3,0A3,3 0 1,1 0,-3A3,3 0 0,1 3,0Z" style="opacity: 1; stroke-width: 0px; fill: rgb(99, 110, 250); fill-opacity: 1;"/><path class="point" transform="translate(505.58,21.9)" d="M3,0A3,3 0 1,1 0,-3A3,3 0 0,1 3,0Z" style="opacity: 1; stroke-width: 0px; fill: rgb(99, 110, 250); fill-opacity: 1;"/><path class="point" transform="translate(463.49,46.58)" d="M3,0A3,3 0 1,1 0,-3A3,3 0 0,1 3,0Z" style="opacity: 1; stroke-width: 0px; fill: rgb(99, 110, 250); fill-opacity: 1;"/><path class="point" transform="translate(380.84,95.02)" d="M3,0A3,3 0 1,1 0,-3A3,3 0 0,1 3,0Z" style="opacity: 1; stroke-width: 0px; fill: rgb(99, 110, 250); fill-opacity: 1;"/><path class="point" transform="translate(494.24,28.55)" d="M3,0A3,3 0 1,1 0,-3A3,3 0 0,1 3,0Z" style="opacity: 1; stroke-width: 0px; fill: rgb(99, 110, 250); fill-opacity: 1;"/><path class="point" transform="translate(509.25,19.75)" d="M3,0A3,3 0 1,1 0,-3A3,3 0 0,1 3,0Z" style="opacity: 1; stroke-width: 0px; fill: rgb(99, 110, 250); fill-opacity: 1;"/><path class="point" transform="translate(33.04,298.91)" d="M3,0A3,3 0 1,1 0,-3A3,3 0 0,1 3,0Z" style="opacity: 1; stroke-width: 0px; fill: rgb(99, 110, 250); fill-opacity: 1;"/><path class="point" transform="translate(103.27,257.74)" d="M3,0A3,3 0 1,1 0,-3A3,3 0 0,1 3,0Z" style="opacity: 1; stroke-width: 0px; fill: rgb(99, 110, 250); fill-opacity: 1;"/><path class="point" transform="translate(455.64,51.18)" d="M3,0A3,3 0 1,1 0,-3A3,3 0 0,1 3,0Z" style="opacity: 1; stroke-width: 0px; fill: rgb(99, 110, 250); fill-opacity: 1;"/><path class="point" transform="translate(79.95,271.41)" d="M3,0A3,3 0 1,1 0,-3A3,3 0 0,1 3,0Z" style="opacity: 1; stroke-width: 0px; fill: rgb(99, 110, 250); fill-opacity: 1;"/><path class="point" transform="translate(245.28,174.49)" d="M3,0A3,3 0 1,1 0,-3A3,3 0 0,1 3,0Z" style="opacity: 1; stroke-width: 0px; fill: rgb(99, 110, 250); fill-opacity: 1;"/><path class="point" transform="translate(429.54,66.48)" d="M3,0A3,3 0 1,1 0,-3A3,3 0 0,1 3,0Z" style="opacity: 1; stroke-width: 0px; fill: rgb(99, 110, 250); fill-opacity: 1;"/><path class="point" transform="translate(362.47,105.79)" d="M3,0A3,3 0 1,1 0,-3A3,3 0 0,1 3,0Z" style="opacity: 1; stroke-width: 0px; fill: rgb(99, 110, 250); fill-opacity: 1;"/><path class="point" transform="translate(362.97,105.5)" d="M3,0A3,3 0 1,1 0,-3A3,3 0 0,1 3,0Z" style="opacity: 1; stroke-width: 0px; fill: rgb(99, 110, 250); fill-opacity: 1;"/><path class="point" transform="translate(305.94,138.93)" d="M3,0A3,3 0 1,1 0,-3A3,3 0 0,1 3,0Z" style="opacity: 1; stroke-width: 0px; fill: rgb(99, 110, 250); fill-opacity: 1;"/><path class="point" transform="translate(63.89,280.82)" d="M3,0A3,3 0 1,1 0,-3A3,3 0 0,1 3,0Z" style="opacity: 1; stroke-width: 0px; fill: rgb(99, 110, 250); fill-opacity: 1;"/><path class="point" transform="translate(153.85,228.09)" d="M3,0A3,3 0 1,1 0,-3A3,3 0 0,1 3,0Z" style="opacity: 1; stroke-width: 0px; fill: rgb(99, 110, 250); fill-opacity: 1;"/><path class="point" transform="translate(396.23,86)" d="M3,0A3,3 0 1,1 0,-3A3,3 0 0,1 3,0Z" style="opacity: 1; stroke-width: 0px; fill: rgb(99, 110, 250); fill-opacity: 1;"/><path class="point" transform="translate(450.4,54.25)" d="M3,0A3,3 0 1,1 0,-3A3,3 0 0,1 3,0Z" style="opacity: 1; stroke-width: 0px; fill: rgb(99, 110, 250); fill-opacity: 1;"/><path class="point" transform="translate(267.08,161.71)" d="M3,0A3,3 0 1,1 0,-3A3,3 0 0,1 3,0Z" style="opacity: 1; stroke-width: 0px; fill: rgb(99, 110, 250); fill-opacity: 1;"/><path class="point" transform="translate(305.93,138.94)" d="M3,0A3,3 0 1,1 0,-3A3,3 0 0,1 3,0Z" style="opacity: 1; stroke-width: 0px; fill: rgb(99, 110, 250); fill-opacity: 1;"/><path class="point" transform="translate(329.62,125.05)" d="M3,0A3,3 0 1,1 0,-3A3,3 0 0,1 3,0Z" style="opacity: 1; stroke-width: 0px; fill: rgb(99, 110, 250); fill-opacity: 1;"/><path class="point" transform="translate(211.26,194.43)" d="M3,0A3,3 0 1,1 0,-3A3,3 0 0,1 3,0Z" style="opacity: 1; stroke-width: 0px; fill: rgb(99, 110, 250); fill-opacity: 1;"/><path class="point" transform="translate(277.03,155.88)" d="M3,0A3,3 0 1,1 0,-3A3,3 0 0,1 3,0Z" style="opacity: 1; stroke-width: 0px; fill: rgb(99, 110, 250); fill-opacity: 1;"/><path class="point" transform="translate(214.54,192.51)" d="M3,0A3,3 0 1,1 0,-3A3,3 0 0,1 3,0Z" style="opacity: 1; stroke-width: 0px; fill: rgb(99, 110, 250); fill-opacity: 1;"/><path class="point" transform="translate(146.55,232.37)" d="M3,0A3,3 0 1,1 0,-3A3,3 0 0,1 3,0Z" style="opacity: 1; stroke-width: 0px; fill: rgb(99, 110, 250); fill-opacity: 1;"/><path class="point" transform="translate(301.85,141.33)" d="M3,0A3,3 0 1,1 0,-3A3,3 0 0,1 3,0Z" style="opacity: 1; stroke-width: 0px; fill: rgb(99, 110, 250); fill-opacity: 1;"/><path class="point" transform="translate(476.97,38.67)" d="M3,0A3,3 0 1,1 0,-3A3,3 0 0,1 3,0Z" style="opacity: 1; stroke-width: 0px; fill: rgb(99, 110, 250); fill-opacity: 1;"/><path class="point" transform="translate(104.77,256.86)" d="M3,0A3,3 0 1,1 0,-3A3,3 0 0,1 3,0Z" style="opacity: 1; stroke-width: 0px; fill: rgb(99, 110, 250); fill-opacity: 1;"/><path class="point" transform="translate(395.07,86.68)" d="M3,0A3,3 0 1,1 0,-3A3,3 0 0,1 3,0Z" style="opacity: 1; stroke-width: 0px; fill: rgb(99, 110, 250); fill-opacity: 1;"/><path class="point" transform="translate(229.56,183.71)" d="M3,0A3,3 0 1,1 0,-3A3,3 0 0,1 3,0Z" style="opacity: 1; stroke-width: 0px; fill: rgb(99, 110, 250); fill-opacity: 1;"/><path class="point" transform="translate(311.82,135.49)" d="M3,0A3,3 0 1,1 0,-3A3,3 0 0,1 3,0Z" style="opacity: 1; stroke-width: 0px; fill: rgb(99, 110, 250); fill-opacity: 1;"/><path class="point" transform="translate(315.5,133.33)" d="M3,0A3,3 0 1,1 0,-3A3,3 0 0,1 3,0Z" style="opacity: 1; stroke-width: 0px; fill: rgb(99, 110, 250); fill-opacity: 1;"/><path class="point" transform="translate(30.75,300.25)" d="M3,0A3,3 0 1,1 0,-3A3,3 0 0,1 3,0Z" style="opacity: 1; stroke-width: 0px; fill: rgb(99, 110, 250); fill-opacity: 1;"/><path class="point" transform="translate(412.58,76.42)" d="M3,0A3,3 0 1,1 0,-3A3,3 0 0,1 3,0Z" style="opacity: 1; stroke-width: 0px; fill: rgb(99, 110, 250); fill-opacity: 1;"/><path class="point" transform="translate(46.19,291.2)" d="M3,0A3,3 0 1,1 0,-3A3,3 0 0,1 3,0Z" style="opacity: 1; stroke-width: 0px; fill: rgb(99, 110, 250); fill-opacity: 1;"/><path class="point" transform="translate(56.84,284.95)" d="M3,0A3,3 0 1,1 0,-3A3,3 0 0,1 3,0Z" style="opacity: 1; stroke-width: 0px; fill: rgb(99, 110, 250); fill-opacity: 1;"/><path class="point" transform="translate(246.93,173.52)" d="M3,0A3,3 0 1,1 0,-3A3,3 0 0,1 3,0Z" style="opacity: 1; stroke-width: 0px; fill: rgb(99, 110, 250); fill-opacity: 1;"/><path class="point" transform="translate(396.28,85.97)" d="M3,0A3,3 0 1,1 0,-3A3,3 0 0,1 3,0Z" style="opacity: 1; stroke-width: 0px; fill: rgb(99, 110, 250); fill-opacity: 1;"/><path class="point" transform="translate(445.53,57.1)" d="M3,0A3,3 0 1,1 0,-3A3,3 0 0,1 3,0Z" style="opacity: 1; stroke-width: 0px; fill: rgb(99, 110, 250); fill-opacity: 1;"/><path class="point" transform="translate(369.17,101.87)" d="M3,0A3,3 0 1,1 0,-3A3,3 0 0,1 3,0Z" style="opacity: 1; stroke-width: 0px; fill: rgb(99, 110, 250); fill-opacity: 1;"/><path class="point" transform="translate(486.61,33.02)" d="M3,0A3,3 0 1,1 0,-3A3,3 0 0,1 3,0Z" style="opacity: 1; stroke-width: 0px; fill: rgb(99, 110, 250); fill-opacity: 1;"/><path class="point" transform="translate(45.87,291.39)" d="M3,0A3,3 0 1,1 0,-3A3,3 0 0,1 3,0Z" style="opacity: 1; stroke-width: 0px; fill: rgb(99, 110, 250); fill-opacity: 1;"/><path class="point" transform="translate(450.4,54.25)" d="M3,0A3,3 0 1,1 0,-3A3,3 0 0,1 3,0Z" style="opacity: 1; stroke-width: 0px; fill: rgb(99, 110, 250); fill-opacity: 1;"/><path class="point" transform="translate(418.11,73.18)" d="M3,0A3,3 0 1,1 0,-3A3,3 0 0,1 3,0Z" style="opacity: 1; stroke-width: 0px; fill: rgb(99, 110, 250); fill-opacity: 1;"/><path class="point" transform="translate(42.69,293.25)" d="M3,0A3,3 0 1,1 0,-3A3,3 0 0,1 3,0Z" style="opacity: 1; stroke-width: 0px; fill: rgb(99, 110, 250); fill-opacity: 1;"/><path class="point" transform="translate(424.36,69.51)" d="M3,0A3,3 0 1,1 0,-3A3,3 0 0,1 3,0Z" style="opacity: 1; stroke-width: 0px; fill: rgb(99, 110, 250); fill-opacity: 1;"/><path class="point" transform="translate(277.9,155.37)" d="M3,0A3,3 0 1,1 0,-3A3,3 0 0,1 3,0Z" style="opacity: 1; stroke-width: 0px; fill: rgb(99, 110, 250); fill-opacity: 1;"/><path class="point" transform="translate(338.9,119.61)" d="M3,0A3,3 0 1,1 0,-3A3,3 0 0,1 3,0Z" style="opacity: 1; stroke-width: 0px; fill: rgb(99, 110, 250); fill-opacity: 1;"/><path class="point" transform="translate(279.95,154.17)" d="M3,0A3,3 0 1,1 0,-3A3,3 0 0,1 3,0Z" style="opacity: 1; stroke-width: 0px; fill: rgb(99, 110, 250); fill-opacity: 1;"/><path class="point" transform="translate(399.6,84.03)" d="M3,0A3,3 0 1,1 0,-3A3,3 0 0,1 3,0Z" style="opacity: 1; stroke-width: 0px; fill: rgb(99, 110, 250); fill-opacity: 1;"/><path class="point" transform="translate(239.31,177.99)" d="M3,0A3,3 0 1,1 0,-3A3,3 0 0,1 3,0Z" style="opacity: 1; stroke-width: 0px; fill: rgb(99, 110, 250); fill-opacity: 1;"/><path class="point" transform="translate(75.03,274.29)" d="M3,0A3,3 0 1,1 0,-3A3,3 0 0,1 3,0Z" style="opacity: 1; stroke-width: 0px; fill: rgb(99, 110, 250); fill-opacity: 1;"/><path class="point" transform="translate(397.03,85.53)" d="M3,0A3,3 0 1,1 0,-3A3,3 0 0,1 3,0Z" style="opacity: 1; stroke-width: 0px; fill: rgb(99, 110, 250); fill-opacity: 1;"/><path class="point" transform="translate(358.25,108.27)" d="M3,0A3,3 0 1,1 0,-3A3,3 0 0,1 3,0Z" style="opacity: 1; stroke-width: 0px; fill: rgb(99, 110, 250); fill-opacity: 1;"/><path class="point" transform="translate(407.61,79.33)" d="M3,0A3,3 0 1,1 0,-3A3,3 0 0,1 3,0Z" style="opacity: 1; stroke-width: 0px; fill: rgb(99, 110, 250); fill-opacity: 1;"/><path class="point" transform="translate(426.11,68.49)" d="M3,0A3,3 0 1,1 0,-3A3,3 0 0,1 3,0Z" style="opacity: 1; stroke-width: 0px; fill: rgb(99, 110, 250); fill-opacity: 1;"/><path class="point" transform="translate(347.97,114.3)" d="M3,0A3,3 0 1,1 0,-3A3,3 0 0,1 3,0Z" style="opacity: 1; stroke-width: 0px; fill: rgb(99, 110, 250); fill-opacity: 1;"/><path class="point" transform="translate(243.75,175.39)" d="M3,0A3,3 0 1,1 0,-3A3,3 0 0,1 3,0Z" style="opacity: 1; stroke-width: 0px; fill: rgb(99, 110, 250); fill-opacity: 1;"/><path class="point" transform="translate(224.82,186.49)" d="M3,0A3,3 0 1,1 0,-3A3,3 0 0,1 3,0Z" style="opacity: 1; stroke-width: 0px; fill: rgb(99, 110, 250); fill-opacity: 1;"/><path class="point" transform="translate(227.41,184.97)" d="M3,0A3,3 0 1,1 0,-3A3,3 0 0,1 3,0Z" style="opacity: 1; stroke-width: 0px; fill: rgb(99, 110, 250); fill-opacity: 1;"/><path class="point" transform="translate(322.33,129.32)" d="M3,0A3,3 0 1,1 0,-3A3,3 0 0,1 3,0Z" style="opacity: 1; stroke-width: 0px; fill: rgb(99, 110, 250); fill-opacity: 1;"/><path class="point" transform="translate(166.49,220.68)" d="M3,0A3,3 0 1,1 0,-3A3,3 0 0,1 3,0Z" style="opacity: 1; stroke-width: 0px; fill: rgb(99, 110, 250); fill-opacity: 1;"/><path class="point" transform="translate(460.02,48.61)" d="M3,0A3,3 0 1,1 0,-3A3,3 0 0,1 3,0Z" style="opacity: 1; stroke-width: 0px; fill: rgb(99, 110, 250); fill-opacity: 1;"/><path class="point" transform="translate(364.2,104.78)" d="M3,0A3,3 0 1,1 0,-3A3,3 0 0,1 3,0Z" style="opacity: 1; stroke-width: 0px; fill: rgb(99, 110, 250); fill-opacity: 1;"/><path class="point" transform="translate(231.77,182.41)" d="M3,0A3,3 0 1,1 0,-3A3,3 0 0,1 3,0Z" style="opacity: 1; stroke-width: 0px; fill: rgb(99, 110, 250); fill-opacity: 1;"/><path class="point" transform="translate(250.42,171.48)" d="M3,0A3,3 0 1,1 0,-3A3,3 0 0,1 3,0Z" style="opacity: 1; stroke-width: 0px; fill: rgb(99, 110, 250); fill-opacity: 1;"/><path class="point" transform="translate(264.83,163.03)" d="M3,0A3,3 0 1,1 0,-3A3,3 0 0,1 3,0Z" style="opacity: 1; stroke-width: 0px; fill: rgb(99, 110, 250); fill-opacity: 1;"/><path class="point" transform="translate(48.35,289.93)" d="M3,0A3,3 0 1,1 0,-3A3,3 0 0,1 3,0Z" style="opacity: 1; stroke-width: 0px; fill: rgb(99, 110, 250); fill-opacity: 1;"/><path class="point" transform="translate(160.91,223.95)" d="M3,0A3,3 0 1,1 0,-3A3,3 0 0,1 3,0Z" style="opacity: 1; stroke-width: 0px; fill: rgb(99, 110, 250); fill-opacity: 1;"/><path class="point" transform="translate(65.77,279.72)" d="M3,0A3,3 0 1,1 0,-3A3,3 0 0,1 3,0Z" style="opacity: 1; stroke-width: 0px; fill: rgb(99, 110, 250); fill-opacity: 1;"/><path class="point" transform="translate(231.17,182.76)" d="M3,0A3,3 0 1,1 0,-3A3,3 0 0,1 3,0Z" style="opacity: 1; stroke-width: 0px; fill: rgb(99, 110, 250); fill-opacity: 1;"/><path class="point" transform="translate(425.24,69)" d="M3,0A3,3 0 1,1 0,-3A3,3 0 0,1 3,0Z" style="opacity: 1; stroke-width: 0px; fill: rgb(99, 110, 250); fill-opacity: 1;"/><path class="point" transform="translate(491.66,30.06)" d="M3,0A3,3 0 1,1 0,-3A3,3 0 0,1 3,0Z" style="opacity: 1; stroke-width: 0px; fill: rgb(99, 110, 250); fill-opacity: 1;"/><path class="point" transform="translate(285.31,151.03)" d="M3,0A3,3 0 1,1 0,-3A3,3 0 0,1 3,0Z" style="opacity: 1; stroke-width: 0px; fill: rgb(99, 110, 250); fill-opacity: 1;"/><path class="point" transform="translate(199.78,201.16)" d="M3,0A3,3 0 1,1 0,-3A3,3 0 0,1 3,0Z" style="opacity: 1; stroke-width: 0px; fill: rgb(99, 110, 250); fill-opacity: 1;"/><path class="point" transform="translate(412.49,76.47)" d="M3,0A3,3 0 1,1 0,-3A3,3 0 0,1 3,0Z" style="opacity: 1; stroke-width: 0px; fill: rgb(99, 110, 250); fill-opacity: 1;"/><path class="point" transform="translate(489.55,31.3)" d="M3,0A3,3 0 1,1 0,-3A3,3 0 0,1 3,0Z" style="opacity: 1; stroke-width: 0px; fill: rgb(99, 110, 250); fill-opacity: 1;"/><path class="point" transform="translate(264.5,163.22)" d="M3,0A3,3 0 1,1 0,-3A3,3 0 0,1 3,0Z" style="opacity: 1; stroke-width: 0px; fill: rgb(99, 110, 250); fill-opacity: 1;"/><path class="point" transform="translate(128.23,243.11)" d="M3,0A3,3 0 1,1 0,-3A3,3 0 0,1 3,0Z" style="opacity: 1; stroke-width: 0px; fill: rgb(99, 110, 250); fill-opacity: 1;"/><path class="point" transform="translate(306.41,138.66)" d="M3,0A3,3 0 1,1 0,-3A3,3 0 0,1 3,0Z" style="opacity: 1; stroke-width: 0px; fill: rgb(99, 110, 250); fill-opacity: 1;"/><path class="point" transform="translate(91.04,264.91)" d="M3,0A3,3 0 1,1 0,-3A3,3 0 0,1 3,0Z" style="opacity: 1; stroke-width: 0px; fill: rgb(99, 110, 250); fill-opacity: 1;"/><path class="point" transform="translate(412.43,76.51)" d="M3,0A3,3 0 1,1 0,-3A3,3 0 0,1 3,0Z" style="opacity: 1; stroke-width: 0px; fill: rgb(99, 110, 250); fill-opacity: 1;"/><path class="point" transform="translate(352.76,111.48)" d="M3,0A3,3 0 1,1 0,-3A3,3 0 0,1 3,0Z" style="opacity: 1; stroke-width: 0px; fill: rgb(99, 110, 250); fill-opacity: 1;"/><path class="point" transform="translate(405.93,80.32)" d="M3,0A3,3 0 1,1 0,-3A3,3 0 0,1 3,0Z" style="opacity: 1; stroke-width: 0px; fill: rgb(99, 110, 250); fill-opacity: 1;"/><path class="point" transform="translate(347.21,114.74)" d="M3,0A3,3 0 1,1 0,-3A3,3 0 0,1 3,0Z" style="opacity: 1; stroke-width: 0px; fill: rgb(99, 110, 250); fill-opacity: 1;"/><path class="point" transform="translate(56.78,284.99)" d="M3,0A3,3 0 1,1 0,-3A3,3 0 0,1 3,0Z" style="opacity: 1; stroke-width: 0px; fill: rgb(99, 110, 250); fill-opacity: 1;"/><path class="point" transform="translate(210.56,194.84)" d="M3,0A3,3 0 1,1 0,-3A3,3 0 0,1 3,0Z" style="opacity: 1; stroke-width: 0px; fill: rgb(99, 110, 250); fill-opacity: 1;"/><path class="point" transform="translate(63.77,280.89)" d="M3,0A3,3 0 1,1 0,-3A3,3 0 0,1 3,0Z" style="opacity: 1; stroke-width: 0px; fill: rgb(99, 110, 250); fill-opacity: 1;"/><path class="point" transform="translate(467.93,43.97)" d="M3,0A3,3 0 1,1 0,-3A3,3 0 0,1 3,0Z" style="opacity: 1; stroke-width: 0px; fill: rgb(99, 110, 250); fill-opacity: 1;"/></g><g class="text"/></g></g></g></g><path class="xlines-above crisp" d="M0,0" style="fill: none;"/><path class="ylines-above crisp" d="M0,0" style="fill: none;"/><g class="overlines-above"/><g class="xaxislayer-above"><g class="xtick"><text text-anchor="middle" x="0" y="433" transform="translate(102.88,0)" style="font-family: 'Open Sans', verdana, arial, sans-serif; font-size: 12px; fill: rgb(42, 63, 95); fill-opacity: 1; white-space: pre; opacity: 1;">0</text></g><g class="xtick"><text text-anchor="middle" x="0" y="433" style="font-family: 'Open Sans', verdana, arial, sans-serif; font-size: 12px; fill: rgb(42, 63, 95); fill-opacity: 1; white-space: pre; opacity: 1;" transform="translate(200.70999999999998,0)">0.2</text></g><g class="xtick"><text text-anchor="middle" x="0" y="433" style="font-family: 'Open Sans', verdana, arial, sans-serif; font-size: 12px; fill: rgb(42, 63, 95); fill-opacity: 1; white-space: pre; opacity: 1;" transform="translate(298.53999999999996,0)">0.4</text></g><g class="xtick"><text text-anchor="middle" x="0" y="433" style="font-family: 'Open Sans', verdana, arial, sans-serif; font-size: 12px; fill: rgb(42, 63, 95); fill-opacity: 1; white-space: pre; opacity: 1;" transform="translate(396.37,0)">0.6</text></g><g class="xtick"><text text-anchor="middle" x="0" y="433" style="font-family: 'Open Sans', verdana, arial, sans-serif; font-size: 12px; fill: rgb(42, 63, 95); fill-opacity: 1; white-space: pre; opacity: 1;" transform="translate(494.2,0)">0.8</text></g><g class="xtick"><text text-anchor="middle" x="0" y="433" style="font-family: 'Open Sans', verdana, arial, sans-serif; font-size: 12px; fill: rgb(42, 63, 95); fill-opacity: 1; white-space: pre; opacity: 1;" transform="translate(592.03,0)">1</text></g></g><g class="yaxislayer-above"><g class="ytick"><text text-anchor="end" x="79" y="4.199999999999999" transform="translate(0,404.86)" style="font-family: 'Open Sans', verdana, arial, sans-serif; font-size: 12px; fill: rgb(42, 63, 95); fill-opacity: 1; white-space: pre; opacity: 1;">0</text></g><g class="ytick"><text text-anchor="end" x="79" y="4.199999999999999" style="font-family: 'Open Sans', verdana, arial, sans-serif; font-size: 12px; fill: rgb(42, 63, 95); fill-opacity: 1; white-space: pre; opacity: 1;" transform="translate(0,347.51)">0.02</text></g><g class="ytick"><text text-anchor="end" x="79" y="4.199999999999999" style="font-family: 'Open Sans', verdana, arial, sans-serif; font-size: 12px; fill: rgb(42, 63, 95); fill-opacity: 1; white-space: pre; opacity: 1;" transform="translate(0,290.15999999999997)">0.04</text></g><g class="ytick"><text text-anchor="end" x="79" y="4.199999999999999" style="font-family: 'Open Sans', verdana, arial, sans-serif; font-size: 12px; fill: rgb(42, 63, 95); fill-opacity: 1; white-space: pre; opacity: 1;" transform="translate(0,232.82)">0.06</text></g><g class="ytick"><text text-anchor="end" x="79" y="4.199999999999999" style="font-family: 'Open Sans', verdana, arial, sans-serif; font-size: 12px; fill: rgb(42, 63, 95); fill-opacity: 1; white-space: pre; opacity: 1;" transform="translate(0,175.47)">0.08</text></g><g class="ytick"><text text-anchor="end" x="79" y="4.199999999999999" style="font-family: 'Open Sans', verdana, arial, sans-serif; font-size: 12px; fill: rgb(42, 63, 95); fill-opacity: 1; white-space: pre; opacity: 1;" transform="translate(0,118.12)">0.1</text></g></g><g class="overaxes-above"/></g></g><g class="polarlayer"/><g class="smithlayer"/><g class="ternarylayer"/><g class="geolayer"/><g class="funnelarealayer"/><g class="pielayer"/><g class="iciclelayer"/><g class="treemaplayer"/><g class="sunburstlayer"/><g class="glimages"/><defs id="topdefs-505328"><g class="clips"/></defs><g class="layer-above"><g class="imagelayer"/><g class="shapelayer"/></g><g class="infolayer"><g class="g-gtitle"><text class="gtitle" x="35" y="50" text-anchor="start" dy="0em" style="opacity: 1; font-family: 'Open Sans', verdana, arial, sans-serif; font-size: 17px; fill: rgb(42, 63, 95); fill-opacity: 1; white-space: pre;">Korrelasjon 1.0</text></g><g class="g-xtitle"><text class="xtitle" x="350" y="459.8" text-anchor="middle" style="opacity: 1; font-family: 'Open Sans', verdana, arial, sans-serif; font-size: 14px; fill: rgb(42, 63, 95); fill-opacity: 1; white-space: pre;">x</text></g><g class="g-ytitle"><text class="ytitle" transform="rotate(-90,32.334375,260)" x="32.334375" y="260" text-anchor="middle" style="opacity: 1; font-family: 'Open Sans', verdana, arial, sans-serif; font-size: 14px; fill: rgb(42, 63, 95); fill-opacity: 1; white-space: pre;">y</text></g></g></svg>